<?xml version="1.0" encoding="utf-8"?>
<!-- Generator: Adobe Illustrator 23.1.1, SVG Export Plug-In . SVG Version: 6.00 Build 0)  -->
<svg version="1.1" id="圖層_1" xmlns="http://www.w3.org/2000/svg" xmlns:xlink="http://www.w3.org/1999/xlink" x="0px" y="0px"
	 viewBox="0 0 144 50" style="enable-background:new 0 0 144 50;" xml:space="preserve">
<style type="text/css">
	.st0{enable-background:new    ;}
	.st1{fill:#10208A;}
	.st2{fill:#10208A;stroke:#FFFFFF;stroke-width:1.6;}
	.st3{fill:#FF6200;stroke:#FFFFFF;stroke-width:1.6;}
	.st4{fill:#FF6200;}
</style>
<title>Group 5 Copy</title>
<desc>Created with Sketch.</desc>
<g id="Page-1">
	<g transform="translate(-116.000000, -126.000000)">
		<g id="Group-5-Copy" transform="translate(48.000000, 127.000000)">
			<g class="st0">
				<path class="st1" d="M106.6,47.1h-1.8v-8.9c-0.6,1.6-1.2,3.1-2.1,4.4l-0.8-2c1.3-1.7,2.2-3.6,2.8-5.8h-2.4v-1.7h2.4v-3.6h1.8
					v3.6h1.9v1.7h-1.9v0.9c0.8,0.8,1.5,1.7,2.3,2.7c1.5-0.6,2.9-1.3,4-2.1c-0.7-0.7-1.3-1.3-1.8-2c-0.4,0.5-0.9,1-1.3,1.5l-1.2-1.4
					c1.3-1.2,2.4-2.8,3.3-4.9l1.7,0.4c-0.2,0.4-0.4,0.8-0.6,1.2h5.2v1.4c-0.7,1.5-1.6,2.8-2.8,3.9c1.2,0.8,2.7,1.5,4.4,2.1l-0.8,1.7
					c-1.9-0.8-3.5-1.7-4.8-2.7c-1.2,0.9-2.6,1.7-4.2,2.3h8.1v7.4h-1.8v-0.7h-4.7v0.7h-1.8v-7.3c-0.3,0.1-0.6,0.2-0.9,0.3l-0.6-0.7
					l-0.4,0.7c-0.6-1-1-1.7-1.4-2.4V47.1z M116.4,44.7v-3.2h-4.7v3.2H116.4z M116.3,32.8h-4.2c-0.1,0.1-0.1,0.2-0.2,0.2
					c0.6,0.8,1.3,1.6,2.1,2.3C115,34.6,115.8,33.7,116.3,32.8z"/>
				<path class="st1" d="M130.2,29.5v5.8h7.1V37h-7.1v7.7h8.6v1.8h-17.2v-1.8h6.7V29.5H130.2z"/>
				<path class="st1" d="M143.8,34.5v-2.4c-0.8,0.1-1.6,0.2-2.4,0.3l-0.4-1.6c2.4-0.2,4.5-0.6,6.4-1.2l0.6,1.7
					c-0.8,0.2-1.6,0.4-2.5,0.6v2.7h2.5v1.7h-2.5v0.8c0.9,0.8,1.8,1.7,2.7,2.6l-1,1.5c-0.7-1-1.2-1.7-1.7-2.3v8.2h-1.8v-8.2
					c-0.7,1.7-1.6,3.2-2.7,4.5l-0.7-1.9c1.5-1.6,2.6-3.4,3.2-5.4h-2.7v-1.7H143.8z M156.7,44.8h1.5v1.7h-10.9v-1.7h1.7V30.1h7.7
					V44.8z M154.9,34.9v-3.1h-4.1v3.1H154.9z M154.9,39.8v-3.2h-4.1v3.2H154.9z M154.9,44.8v-3.2h-4.1v3.2H154.9z"/>
				<path class="st1" d="M167.7,33.9v-1.3h-7.4v-1.7h7.4v-1.5h1.9v1.5h7.3v1.7h-7.3v1.3h5.9v7.8h-5.9V43h7.6v1.7h-7.6v2.4h-1.9v-2.4
					H160V43h7.7v-1.3h-6v-7.8H167.7z M167.7,37v-1.4h-4.2V37H167.7z M167.7,38.6h-4.2V40h4.2V38.6z M169.6,37h4.1v-1.4h-4.1V37z
					 M173.7,38.6h-4.1V40h4.1V38.6z"/>
			</g>
			<g id="CarPlus_logo_WithWhiteOutline" transform="translate(69.669291, 0.000000)">
				<g id="Group">
					<ellipse id="Oval" class="st2" cx="13.4" cy="11.4" rx="13.3" ry="11.1"/>
					<path id="Path" class="st2" d="M46.8,5.4h-9.9c0,0-6.3,0.8-6.3,7.1s6.1,6.3,6.1,6.3h12.8l7.2-10.3l7.1,10.3h6.5v-2.9h6.6l2,2.9
						h4.2l-4-6.3h-8.8V9.2h10.7c0,0-1.2-3.4-4.8-3.7c-3.6-0.3-9.8,0-9.8,0v10.2L58.9,5.3h-4.3l-7.1,9.9H36.4c0,0-2-0.7-2-3.1
						s2.3-2.3,2.3-2.3h10.2L46.8,5.4z"/>
					<polygon class="st3" points="56.7,12.5 52.4,18.8 61.2,18.8 					"/>
					<path class="st3" d="M82.9,5.3v3.9h8.8c0,0,1.3,0.1,1.3,1.4c0,0.9,0.1,1.9-1.3,1.9c-1.4,0-8.8,0-8.8,0v6.3h4.3v-3.1h4.6
						c0,0,5.8,0.4,5.8-4.9s-5.8-5.4-5.8-5.4H82.9z"/>
					<polygon class="st3" points="97.6,5.3 97.6,18.8 110.1,18.8 110.1,15.6 101.9,15.6 101.9,5.3 					"/>
					<path class="st3" d="M140.1,5.3c0,0-8.8-2.2-13.1,1.1s0.6,6.5,3,6.7c2.4,0.3,5.3,0.2,5.3,1.4c0,0.9-0.1,1.6-2.7,1.6
						c-3,0-6.7-1-6.7-1v3.6c0,0,5.8,1,9.5,0.6c3.7-0.4,5.3-2,5.2-5.3c-0.1-3.3-7.7-3.6-7.7-3.6s-3.1-0.1-3-1.4s2.3-1.6,5.3-1.3
						c3,0.3,4.8,1.1,4.8,1.1V5.3L140.1,5.3z"/>
					<path class="st3" d="M121.4,5.3v9.6c0,0,0.2,1.4-3.7,1.4c-3.9,0-3.7-1.4-3.7-1.4V5.3h-3.9v9.9c0,0,0.4,4.2,5.6,4.2
						c0.5,0,0.9,0,1.3,0c0.5,0,1,0,1.4,0s0.8,0,1.3,0c5.3,0,5.6-4.2,5.6-4.2V5.3H121.4z"/>
				</g>
				<g>
					<path class="st4" d="M82.9,5.3v3.9h8.8c0,0,1.3,0.1,1.3,1.4c0,0.9,0.1,1.9-1.3,1.9c-1.4,0-8.8,0-8.8,0v6.3h4.3v-3.1h4.6
						c0,0,5.8,0.4,5.8-4.9s-5.8-5.4-5.8-5.4H82.9z"/>
					<g>
						<ellipse class="st1" cx="13.4" cy="11.4" rx="13.3" ry="11.1"/>
						<g>
							<path class="st4" d="M5.1,20.1c0.3,0.2,0.5,0.4,0.8,0.5C5.8,20.5,5.5,20.3,5.1,20.1L5.1,20.1z"/>
							<path class="st4" d="M13.4,0.3c-7.4,0-13.3,5-13.3,11.1c0,2.4,0.9,4.6,2.5,6.5C0.1,14.5,0.4,9.3,4,6c2.6-2.4,6.4-3.1,9.4-2.9
								c0,0,0.4,0,0.2,0.4c-0.2,0.4-4.2,8.9-4.2,8.9l10.9,6.9l-7-8l8.8-8.3C19.8,1.3,16.8,0.3,13.4,0.3z"/>
						</g>
						<path class="st1" d="M46.8,5.4h-9.9c0,0-6.3,0.8-6.3,7.1s6.1,6.3,6.1,6.3h12.8l7.2-10.3l7.1,10.3h6.5v-2.9h6.6l2,2.9h4.2
							l-4-6.3h-8.8V9.2h10.7c0,0-1.2-3.4-4.8-3.7c-3.6-0.3-9.8,0-9.8,0v10.2L58.9,5.3h-4.3l-7.1,9.9H36.4c0,0-2-0.7-2-3.1
							s2.3-2.3,2.3-2.3h10.2L46.8,5.4z"/>
						<polygon class="st4" points="56.7,12.5 52.4,18.8 61.2,18.8 						"/>
						<polygon class="st4" points="97.6,5.3 97.6,18.8 110.1,18.8 110.1,15.6 101.9,15.6 101.9,5.3 						"/>
						<path class="st4" d="M140.1,5.3c0,0-8.8-2.2-13.1,1.1s0.6,6.5,3,6.7c2.4,0.3,5.3,0.2,5.3,1.4c0,0.9-0.1,1.6-2.7,1.6
							c-3,0-6.7-1-6.7-1v3.6c0,0,5.8,1,9.5,0.6c3.7-0.4,5.3-2,5.2-5.3c-0.1-3.3-7.7-3.6-7.7-3.6s-3.1-0.1-3-1.4s2.3-1.6,5.3-1.3
							c3,0.3,4.8,1.1,4.8,1.1V5.3L140.1,5.3z"/>
						<path class="st4" d="M121.4,5.3v9.6c0,0,0.2,1.4-3.7,1.4c-3.9,0-3.7-1.4-3.7-1.4V5.3h-3.9v9.9c0,0,0.4,4.2,5.6,4.2
							c0.5,0,0.9,0,1.3,0c0.5,0,1,0,1.4,0s0.8,0,1.3,0c5.3,0,5.6-4.2,5.6-4.2V5.3H121.4z"/>
					</g>
				</g>
			</g>
		</g>
	</g>
</g>
</svg>
