<svg id="圖層_1" data-name="圖層 1" xmlns="http://www.w3.org/2000/svg" viewBox="0 0 40 40"><defs><style>.cls-1{opacity:0.8;}.cls-2{fill:#3c3d68;}</style></defs><title>ic_rental_location</title><g class="cls-1"><path class="cls-2" d="M13.65,14.71A6.59,6.59,0,0,0,7,21.22c0,2.2,1.06,4.55,3.14,7l.53.61c-1.17.42-1.82,1.08-1.82,1.87,0,1.53,2.41,2.33,4.8,2.33s4.79-.8,4.79-2.33c0-.79-.64-1.45-1.82-1.87.46-.5.89-1,1.28-1.53a.7.7,0,0,0,.13-.52.66.66,0,0,0-.28-.46.71.71,0,0,0-1,.14,19.33,19.33,0,0,1-1.89,2.14.69.69,0,0,0-.23.22c-.4.39-.76.7-1,.91-.24-.2-.58-.5-1-.89a.69.69,0,0,0-.26-.25c-1.49-1.48-4-4.39-4-7.35a5.23,5.23,0,0,1,10.46,0,7.89,7.89,0,0,1-1.31,4,.66.66,0,0,0-.08.53.68.68,0,0,0,.33.43.7.7,0,0,0,1-.24,9.17,9.17,0,0,0,1.51-4.76A6.58,6.58,0,0,0,13.65,14.71Zm2.62,16.47a7.22,7.22,0,0,1-2.62.43c-2.24,0-3.35-.74-3.38-.93s.43-.49,1.53-.74a17.54,17.54,0,0,0,1.42,1.23.72.72,0,0,0,.86,0s.59-.45,1.42-1.23c1.09.25,1.51.64,1.53.74S16.86,31,16.27,31.18Z"/><path class="cls-2" d="M11.65,20a.69.69,0,0,0-.86.48,2.81,2.81,0,0,0-.12.82,3,3,0,1,0,1.2-2.4.75.75,0,0,0-.27.46.7.7,0,0,0,1.11.66,1.58,1.58,0,0,1,1-.32,1.61,1.61,0,1,1-1.61,1.6,1.31,1.31,0,0,1,.07-.44A.7.7,0,0,0,11.65,20Z"/><path class="cls-2" d="M25.33,17.87c-.81.35-1.25.88-1.25,1.5s.47,1.18,1.33,1.53a7.27,7.27,0,0,0,4.87,0c.86-.35,1.33-.89,1.33-1.53s-.44-1.15-1.25-1.5l.25-.29A8.66,8.66,0,0,0,33,12.13a5.16,5.16,0,0,0-9.9-2,.68.68,0,0,0,0,.54.71.71,0,0,0,.38.38.7.7,0,0,0,.91-.37,3.76,3.76,0,0,1,7.22,1.45c0,2.72-2.76,5.4-3.76,6.28l-.6-.56a.58.58,0,0,0-.22-.22c-1.1-1.12-2.93-3.3-2.93-5.5a.7.7,0,0,0-1.4,0,8.66,8.66,0,0,0,2.39,5.45Zm.18,1.51a2.29,2.29,0,0,1,.9-.4,12.81,12.81,0,0,0,1,.89l0,0A3.72,3.72,0,0,1,25.51,19.38ZM30,19.27a1.36,1.36,0,0,1,.14.1,3.56,3.56,0,0,1-2,.54l.05,0a11.08,11.08,0,0,0,1-.89A2.86,2.86,0,0,1,30,19.27Z"/><path class="cls-2" d="M30.35,12.16a2.5,2.5,0,1,0-2.5,2.5A2.5,2.5,0,0,0,30.35,12.16Zm-1.4,0a1.1,1.1,0,1,1-1.1-1.1A1.09,1.09,0,0,1,29,12.16Z"/><path class="cls-2" d="M23.1,20.25h.4a.47.47,0,0,0,0-.94h-.14a1.72,1.72,0,0,0-.32,0,.47.47,0,0,0-.38.53A.46.46,0,0,0,23.1,20.25Z"/><path class="cls-2" d="M21.61,30.2h-.53a.55.55,0,0,0-.41.17.43.43,0,0,0-.14.31.52.52,0,0,0,.55.48h.53A.59.59,0,0,0,22,31a.46.46,0,0,0,.13-.31A.52.52,0,0,0,21.61,30.2Z"/><path class="cls-2" d="M23.61,23.86h-.53a.51.51,0,0,0-.54.48.51.51,0,0,0,.54.48h.53a.52.52,0,0,0,.55-.48A.51.51,0,0,0,23.61,23.86Z"/><path class="cls-2" d="M21.14,21.25a.54.54,0,0,0,.41-.2,1.94,1.94,0,0,1,.23-.26.46.46,0,0,0,.16-.34.43.43,0,0,0-.13-.34.49.49,0,0,0-.69,0,2.31,2.31,0,0,0-.37.4.47.47,0,0,0-.09.36.48.48,0,0,0,.2.32A.47.47,0,0,0,21.14,21.25Z"/><path class="cls-2" d="M23.61,30.2h-.53a.55.55,0,0,0-.41.17.38.38,0,0,0-.13.31.51.51,0,0,0,.54.48h.54A.55.55,0,0,0,24,31a.48.48,0,0,0,.13-.31A.51.51,0,0,0,23.61,30.2Z"/><path class="cls-2" d="M19.61,30.2h-.53a.59.59,0,0,0-.42.17.46.46,0,0,0-.13.31.52.52,0,0,0,.55.48h.53A.59.59,0,0,0,20,31a.48.48,0,0,0,.13-.31A.52.52,0,0,0,19.61,30.2Z"/><path class="cls-2" d="M21.68,23.33a.5.5,0,0,0-.35-.14.42.42,0,0,0-.33.16.52.52,0,0,0,0,.7,2.79,2.79,0,0,0,.42.35.38.38,0,0,0,.25.08.49.49,0,0,0,.41-.23.53.53,0,0,0-.15-.69A1.38,1.38,0,0,1,21.68,23.33Z"/><path class="cls-2" d="M21.1,22.91h0a.63.63,0,0,0,.45-.25.37.37,0,0,0,.05-.29,1,1,0,0,1-.05-.29.32.32,0,0,0-.11-.27.69.69,0,0,0-.5-.19c-.35,0-.62.2-.62.47a1.59,1.59,0,0,0,.07.48.6.6,0,0,0,.6.34Z"/><path class="cls-2" d="M25.28,24.82a.52.52,0,0,0,.55-.48.52.52,0,0,0-.55-.48h-.53a.52.52,0,0,0-.55.48.52.52,0,0,0,.55.48Z"/><path class="cls-2" d="M31,25.49a.47.47,0,0,0,.38-.21.53.53,0,0,0-.08-.7,3,3,0,0,0-.41-.32.42.42,0,0,0-.36-.05.45.45,0,0,0-.29.25.54.54,0,0,0,.17.69,2.1,2.1,0,0,1,.3.22A.47.47,0,0,0,31,25.49Z"/><path class="cls-2" d="M29.66,30.2h0a1.33,1.33,0,0,1-.28,0h-.06a.47.47,0,0,0,0,.93h.05a2.5,2.5,0,0,0,.4,0,.47.47,0,0,0,.39-.53.52.52,0,0,0-.18-.31A.49.49,0,0,0,29.66,30.2Z"/><path class="cls-2" d="M31.37,29.2h0a.47.47,0,0,0-.33.14h0a2.09,2.09,0,0,1-.28.24.52.52,0,0,0-.12.69.46.46,0,0,0,.39.22.47.47,0,0,0,.28-.09,3.17,3.17,0,0,0,.39-.34.51.51,0,0,0,0-.7A.46.46,0,0,0,31.37,29.2Z"/><path class="cls-2" d="M32.36,27.54a.59.59,0,0,0-.66.35,1.28,1.28,0,0,1-.11.31.35.35,0,0,0,0,.33.51.51,0,0,0,.36.27.55.55,0,0,0,.18,0,.57.57,0,0,0,.53-.28,2.19,2.19,0,0,0,.18-.46.35.35,0,0,0-.06-.31A.53.53,0,0,0,32.36,27.54Z"/><path class="cls-2" d="M31.54,25.56a.52.52,0,0,0-.31.29.41.41,0,0,0,0,.34,2.29,2.29,0,0,1,.16.31.54.54,0,0,0,.52.32.39.39,0,0,0,.15,0,.5.5,0,0,0,.36-.25.4.4,0,0,0,0-.32,2.35,2.35,0,0,0-.22-.45A.62.62,0,0,0,31.54,25.56Z"/><path class="cls-2" d="M27.29,24.82a.51.51,0,0,0,.54-.48.51.51,0,0,0-.54-.48h-.54a.51.51,0,0,0-.54.48.51.51,0,0,0,.54.48Z"/><path class="cls-2" d="M25.62,30.2h-.54a.55.55,0,0,0-.41.17.42.42,0,0,0-.13.31.51.51,0,0,0,.55.48h.53A.55.55,0,0,0,26,31a.38.38,0,0,0,.13-.31A.51.51,0,0,0,25.62,30.2Z"/><path class="cls-2" d="M29.29,24.82a.53.53,0,0,0,.55-.46.47.47,0,0,0-.12-.32.6.6,0,0,0-.41-.18h-.55a.48.48,0,1,0,0,.95h.53Z"/><path class="cls-2" d="M27.62,30.2h-.53a.59.59,0,0,0-.42.17.46.46,0,0,0-.13.31.52.52,0,0,0,.55.48h.53A.55.55,0,0,0,28,31a.44.44,0,0,0,.14-.31A.52.52,0,0,0,27.62,30.2Z"/></g></svg>