<?xml version="1.0" encoding="utf-8"?>
<!-- Generator: Adobe Illustrator 23.0.4, SVG Export Plug-In . SVG Version: 6.00 Build 0)  -->
<svg version="1.1" id="圖層_1" xmlns="http://www.w3.org/2000/svg" xmlns:xlink="http://www.w3.org/1999/xlink" x="0px" y="0px"
	 viewBox="0 0 24 24" style="enable-background:new 0 0 24 24;" xml:space="preserve">
<style type="text/css">
	.st0{fill:#A2A5BC;}
</style>
<title>ic_edit</title>
<path class="st0" d="M14.9,10.9c0-0.3-0.3-0.6-0.6-0.6H8.1c-0.3,0-0.6,0.3-0.6,0.6s0.3,0.6,0.6,0.6h6.3
	C14.7,11.5,14.9,11.2,14.9,10.9z"/>
<path class="st0" d="M8.1,12.7c-0.3,0-0.6,0.3-0.6,0.6s0.3,0.6,0.6,0.6h3.8c0.3,0,0.6-0.3,0.6-0.6c0-0.3-0.3-0.6-0.6-0.6
	c0,0,0,0,0,0H8.1z"/>
<path class="st0" d="M9.5,18.6h-2c-0.7,0-1.2-0.6-1.2-1.2V6.6c0-0.7,0.5-1.2,1.2-1.2h7.5c0.7,0,1.2,0.5,1.2,1.2c0,0,0,0,0,0v3.8
	c0,0.3,0.3,0.6,0.6,0.6c0.3,0,0.6-0.3,0.6-0.6l0,0V6.6c0-1.3-1.1-2.4-2.4-2.5H7.4C6.1,4.2,5,5.3,5,6.6v10.7c0,1.3,1.1,2.4,2.4,2.5h2
	c0.3,0,0.6-0.3,0.6-0.6l0,0C10.1,18.8,9.8,18.6,9.5,18.6z"/>
<path class="st0" d="M18.5,13c-0.7-0.7-1.9-0.7-2.6,0l-3.4,3.3c-0.1,0.1-0.1,0.2-0.2,0.3L11.6,19c-0.1,0.3,0.1,0.7,0.4,0.8
	c0.1,0,0.1,0,0.2,0c0.1,0,0.1,0,0.2,0l2.5-0.7c0.1,0,0.2-0.1,0.3-0.2l3.3-3.3C19.2,14.9,19.2,13.8,18.5,13C18.5,13,18.5,13,18.5,13z
	 M14.4,18l-1.2,0.3l0.4-1.2l2.3-2.3l0.9,0.9L14.4,18z M17.6,14.8l-0.1,0.1L16.6,14l0.1-0.1c0.2-0.3,0.6-0.3,0.9-0.1
	C17.9,14,17.9,14.4,17.6,14.8C17.6,14.7,17.6,14.7,17.6,14.8L17.6,14.8z"/>
<path class="st0" d="M14.3,7.8H8.1c-0.3,0-0.6,0.3-0.6,0.6l0,0C7.5,8.8,7.7,9,8.1,9h6.3c0.3,0,0.6-0.3,0.6-0.6
	C14.9,8.1,14.7,7.8,14.3,7.8z"/>
</svg>
