<svg id="圖層_1" data-name="圖層 1" xmlns="http://www.w3.org/2000/svg" xmlns:xlink="http://www.w3.org/1999/xlink" viewBox="0 0 40 40"><defs><style>.cls-1,.cls-2,.cls-3,.cls-7{fill:#6b6c8c;}.cls-1{clip-rule:evenodd;}.cls-3{fill-rule:evenodd;}.cls-4{clip-path:url(#clip-path);}.cls-5{clip-path:url(#clip-path-2);}.cls-6{clip-path:url(#clip-path-3);}.cls-7{opacity:0.6;}.cls-8{fill:#6d6e8e;}</style><clipPath id="clip-path"><path class="cls-1" d="M25.6,22.22a13.74,13.74,0,0,1-1.38.94,5.43,5.43,0,0,0,.07-5.72,13.51,13.51,0,0,1,1.31.9,15.8,15.8,0,0,1,2.09,1.94A15.8,15.8,0,0,1,25.6,22.22ZM12.31,20.28a15.8,15.8,0,0,1,2.09-1.94,13.51,13.51,0,0,1,1.31-.9,5.43,5.43,0,0,0,.07,5.72,13.74,13.74,0,0,1-1.38-.94A15.8,15.8,0,0,1,12.31,20.28Zm11.71,0a4,4,0,1,1-4.63-4.13,6.22,6.22,0,0,1,1.22,0A4.14,4.14,0,0,1,24,20.25Zm4.78-.32a16.41,16.41,0,0,0-2.55-2.44,12.85,12.85,0,0,0-2.78-1.69A9.21,9.21,0,0,0,21,15.08a4.85,4.85,0,0,0-2,0,9.21,9.21,0,0,0-2.49.72,12.85,12.85,0,0,0-2.78,1.69,16.41,16.41,0,0,0-2.55,2.44.57.57,0,0,0,0,.7,16.41,16.41,0,0,0,2.55,2.44,13.26,13.26,0,0,0,2.78,1.69,8.11,8.11,0,0,0,6.94,0,13.26,13.26,0,0,0,2.78-1.69,16.41,16.41,0,0,0,2.55-2.44A.57.57,0,0,0,28.8,19.93Z"/></clipPath><clipPath id="clip-path-2"><rect class="cls-2" x="11.08" y="14" width="18" height="12"/></clipPath><clipPath id="clip-path-3"><path class="cls-1" d="M22,19.82V20a1.93,1.93,0,1,1-1.92-1.92h.18A2,2,0,0,0,22,19.82ZM17.08,20a3,3,0,0,0,6,0,2.82,2.82,0,0,0-.13-.87.53.53,0,0,0-.59-.38h-.13a.91.91,0,0,1-.91-.91.57.57,0,0,1,0-.13.53.53,0,0,0-.38-.59,2.82,2.82,0,0,0-.87-.13A3,3,0,0,0,17.08,20Z"/></clipPath></defs><title>ic_invision</title><path class="cls-3" d="M25.6,22.22a13.74,13.74,0,0,1-1.38.94,5.43,5.43,0,0,0,.07-5.72,13.51,13.51,0,0,1,1.31.9,15.8,15.8,0,0,1,2.09,1.94A15.8,15.8,0,0,1,25.6,22.22ZM12.31,20.28a15.8,15.8,0,0,1,2.09-1.94,13.51,13.51,0,0,1,1.31-.9,5.43,5.43,0,0,0,.07,5.72,13.74,13.74,0,0,1-1.38-.94A15.8,15.8,0,0,1,12.31,20.28Zm11.71,0a4,4,0,1,1-4.63-4.13,6.22,6.22,0,0,1,1.22,0A4.14,4.14,0,0,1,24,20.25Zm4.78-.32a16.41,16.41,0,0,0-2.55-2.44,12.85,12.85,0,0,0-2.78-1.69A9.21,9.21,0,0,0,21,15.08a4.85,4.85,0,0,0-2,0,9.21,9.21,0,0,0-2.49.72,12.85,12.85,0,0,0-2.78,1.69,16.41,16.41,0,0,0-2.55,2.44.57.57,0,0,0,0,.7,16.41,16.41,0,0,0,2.55,2.44,13.26,13.26,0,0,0,2.78,1.69,8.11,8.11,0,0,0,6.94,0,13.26,13.26,0,0,0,2.78-1.69,16.41,16.41,0,0,0,2.55-2.44A.57.57,0,0,0,28.8,19.93Z"/><g class="cls-4"><rect class="cls-2" x="11.08" y="14" width="18" height="12"/><g class="cls-5"><rect class="cls-2" x="6.08" y="9.98" width="27.84" height="20.56"/></g></g><path class="cls-3" d="M22,19.82V20a1.93,1.93,0,1,1-1.92-1.92h.18A2,2,0,0,0,22,19.82ZM17.08,20a3,3,0,0,0,6,0,2.82,2.82,0,0,0-.13-.87.53.53,0,0,0-.59-.38h-.13a.91.91,0,0,1-.91-.91.57.57,0,0,1,0-.13.53.53,0,0,0-.38-.59,2.82,2.82,0,0,0-.87-.13A3,3,0,0,0,17.08,20Z"/><g class="cls-6"><rect class="cls-7" x="12.08" y="12" width="16" height="16"/></g><path class="cls-8" d="M26.35,27.24a.47.47,0,0,1-.35-.15L12.52,13.61a.49.49,0,0,1,.7-.7L26.7,26.39a.48.48,0,0,1,0,.7A.47.47,0,0,1,26.35,27.24Z"/></svg>