<svg id="圖層_1" data-name="圖層 1" xmlns="http://www.w3.org/2000/svg" viewBox="0 0 40 40"><defs><style>.cls-1{opacity:0.8;}.cls-2{fill:#3c3d68;}</style></defs><title>ic_key</title><g class="cls-1"><path class="cls-2" d="M23.92,7.18A8.73,8.73,0,0,0,15.74,18.9L7.59,27.05a.74.74,0,0,0-.21.53v4.49a.74.74,0,0,0,.74.75h3.71a.77.77,0,0,0,.53-.22l1.24-1.24a.77.77,0,0,0,.22-.53V29.42h1.41a.76.76,0,0,0,.75-.75v-.49h.49a.76.76,0,0,0,.75-.75V26.21h1.22A.75.75,0,0,0,19,26l1.93-1.93a8.81,8.81,0,0,0,3,.53,8.71,8.71,0,0,0,0-17.41Zm0,15.91a7.21,7.21,0,0,1-2.9-.6.74.74,0,0,0-.83.15l-2.06,2.07H16.47a.75.75,0,0,0-.75.75v1.22h-.49a.75.75,0,0,0-.75.75v.49H13.07a.76.76,0,0,0-.75.75v1.84l-.8.81H8.88v-.71L16.49,23a.7.7,0,0,0,0-1,.69.69,0,0,0-1,0L8.88,28.67v-.78l8.28-8.29a.72.72,0,0,0,.15-.82,7.21,7.21,0,1,1,6.61,4.31Z"/><path class="cls-2" d="M26.53,10.93a2.35,2.35,0,1,0,2.34,2.34A2.34,2.34,0,0,0,26.53,10.93Zm0,3.44a1.1,1.1,0,1,1,1.09-1.1A1.09,1.09,0,0,1,26.53,14.37Z"/></g></svg>