<svg id="圖層_1" data-name="圖層 1" xmlns="http://www.w3.org/2000/svg" viewBox="0 0 40 40"><defs><style>.cls-1{fill:#6b6c8c;}</style></defs><title>ic_vision</title><path class="cls-1" d="M11.08,20v0h0Z"/><path class="cls-1" d="M20.15,14.74l-.15,0-.16,0Z"/><path class="cls-1" d="M28.8,19.66a16.73,16.73,0,0,0-2.55-2.45,13.46,13.46,0,0,0-2.78-1.68A9.21,9.21,0,0,0,21,14.81a5.69,5.69,0,0,0-.83-.08h-.31a5.56,5.56,0,0,0-.82.08,9.21,9.21,0,0,0-2.49.72,13.2,13.2,0,0,0-2.78,1.68,16.73,16.73,0,0,0-2.55,2.45.54.54,0,0,0-.12.34v0a.54.54,0,0,0,.12.34,16.41,16.41,0,0,0,2.55,2.44,13.26,13.26,0,0,0,2.78,1.69,8.11,8.11,0,0,0,6.94,0,13.52,13.52,0,0,0,2.78-1.69,16.41,16.41,0,0,0,2.55-2.44.59.59,0,0,0,.12-.35A.57.57,0,0,0,28.8,19.66ZM14.4,22A15.18,15.18,0,0,1,12.31,20a15.18,15.18,0,0,1,2.09-1.94,13.51,13.51,0,0,1,1.31-.9A5.32,5.32,0,0,0,14.93,20a5.44,5.44,0,0,0,.84,2.91A13.54,13.54,0,0,1,14.4,22Zm5.6,2.2a4.19,4.19,0,0,1-.61-8.3,6.22,6.22,0,0,1,1.22,0,4.19,4.19,0,0,1-.61,8.3ZM25.6,22a13.74,13.74,0,0,1-1.38.94,5.43,5.43,0,0,0,.07-5.72,13.51,13.51,0,0,1,1.31.9A15.8,15.8,0,0,1,27.69,20,15.8,15.8,0,0,1,25.6,22Z"/><path class="cls-1" d="M22.15,18.75a.91.91,0,0,1-.91-.91.62.62,0,0,1,0-.13.53.53,0,0,0-.38-.59A3.16,3.16,0,0,0,20,17a3,3,0,1,0,3,3,2.87,2.87,0,0,0-.13-.87.56.56,0,0,0-.59-.38Z"/></svg>